<?xml version="1.0" encoding="UTF-8" standalone="no"?>
<svg
   xmlns:dc="http://purl.org/dc/elements/1.1/"
   xmlns:cc="http://creativecommons.org/ns#"
   xmlns:rdf="http://www.w3.org/1999/02/22-rdf-syntax-ns#"
   xmlns:svg="http://www.w3.org/2000/svg"
   xmlns="http://www.w3.org/2000/svg"
   version="1.1"
   id="svg4623"
   viewBox="0 0 327.98039 335.41211"
   height="94.660751mm"
   width="92.563354mm">
  <defs
     id="defs4625" />
  <metadata
     id="metadata4628">
    <rdf:RDF>
      <cc:Work
         rdf:about="">
        <dc:format>image/svg+xml</dc:format>
        <dc:type
           rdf:resource="http://purl.org/dc/dcmitype/StillImage" />
        <dc:title></dc:title>
      </cc:Work>
    </rdf:RDF>
  </metadata>
  <g
     transform="translate(-30.295514,-27.513292)"
     id="layer1">
    <path
       id="path4368-9"
       d="m 34.295514,98.173454 c 39.7845,22.968746 79.568996,45.937496 119.353496,68.906246 3.5662,-20.30853 5.2129,-41.29859 10.2355,-61.24254 20.5722,-13.369406 42.5352,-24.851646 63.6785,-37.405898 -23.625,-13.63932 -47.25,-27.27865 -70.875,-40.91797 -40.7975,23.55338 -81.594996,47.106772 -122.392496,70.660162 z"
       style="display:inline;fill:#ffffff;fill-opacity:0.75496689;fill-rule:evenodd;stroke:none;stroke-width:5;stroke-linecap:round;stroke-linejoin:round;stroke-miterlimit:4;stroke-dasharray:none;stroke-opacity:1" />
    <path
       id="path4370-8"
       d="m 30.295514,246.4293 c 22.4095,12.93685 44.819,25.8737 67.2285,38.81055 0.4323,-21.97705 -1.0715,-44.22179 0.809,-66.03339 16.447096,-15.7039 34.416196,-29.98966 51.495696,-45.09161 -39.8444,-23.0039 -79.688796,-46.00781 -119.533196,-69.01172 0,47.10873 0,94.21745 0,141.32617 z"
       style="display:inline;fill:#ffffff;fill-opacity:0.59602649;fill-rule:evenodd;stroke:none;stroke-width:5;stroke-linecap:round;stroke-linejoin:round;stroke-miterlimit:4;stroke-dasharray:none;stroke-opacity:1" />
    <path
       id="path4372-9"
       d="m 105.49271,222.9293 c 0,46.66537 0,93.33073 0,139.9961 15.7318,-13.57943 31.4636,-27.15886 47.1953,-40.73828 0,-46.66602 0,-93.33203 0,-139.99805 -15.7317,13.58008 -31.4635,27.16016 -47.1953,40.74023 z"
       style="display:inline;fill:#ffffff;fill-opacity:0.57615895;fill-rule:evenodd;stroke:none;stroke-width:5;stroke-linecap:round;stroke-linejoin:round;stroke-miterlimit:4;stroke-dasharray:none;stroke-opacity:1" />
    <path
       id="path4374-4"
       d="m 164.68801,324.01915 c 19.5892,11.30924 39.1784,22.61849 58.7676,33.92773 40.7975,-23.55338 81.5951,-47.10677 122.3926,-70.66015 -19.5892,-11.30925 -39.1784,-22.61849 -58.7676,-33.92774 -40.7975,23.55339 -81.595,47.10677 -122.3926,70.66016 z"
       style="display:inline;fill:#ffffff;fill-opacity:0.410596;fill-rule:evenodd;stroke:none;stroke-width:5;stroke-linecap:round;stroke-linejoin:round;stroke-miterlimit:4;stroke-dasharray:none;stroke-opacity:1" />
    <path
       id="path4376-5"
       d="m 291.08061,101.03282 c 0,47.37175 0,94.74349 0,142.11524 22.3985,-7.63672 44.7969,-15.27344 67.1953,-22.91016 0,-47.37175 0,-94.74349 0,-142.115236 -22.3984,7.63672 -44.7968,15.27344 -67.1953,22.910156 z"
       style="display:inline;fill:#ffffff;fill-opacity:0.4370861;fill-rule:evenodd;stroke:none;stroke-width:5;stroke-linecap:round;stroke-linejoin:round;stroke-miterlimit:4;stroke-dasharray:none;stroke-opacity:1" />
    <path
       id="path4378-8"
       d="m 170.35021,110.67735 c -2.8158,18.38281 -5.6316,36.76563 -8.4473,55.14844 40.5052,-23.38542 81.0104,-46.77083 121.5156,-70.156246 2.8158,-18.38281 5.6315,-36.765632 8.4473,-55.148442 -40.5052,23.38542 -81.0104,46.770842 -121.5156,70.156248 z"
       style="display:inline;fill:#ffffff;fill-opacity:0.62913908;fill-rule:evenodd;stroke:none;stroke-width:5;stroke-linecap:round;stroke-linejoin:round;stroke-miterlimit:4;stroke-dasharray:none;stroke-opacity:1" />
    <path
       id="path4380-1"
       d="m 164.68801,173.4547 c 39.4642,22.7845 78.9284,45.56901 118.3926,68.35351 0,-45.56836 0,-91.13672 0,-136.70508 -39.4642,22.78386 -78.9284,45.56771 -118.3926,68.35157 z"
       style="display:inline;fill:#ffffff;fill-opacity:0.16556295;fill-rule:evenodd;stroke:none;stroke-width:5;stroke-linecap:round;stroke-linejoin:round;stroke-miterlimit:4;stroke-dasharray:none;stroke-opacity:1" />
    <path
       id="path4382-4"
       d="m 160.68801,317.08946 c 39.4642,-22.78385 78.9284,-45.56771 118.3926,-68.35156 -39.4642,-22.78451 -78.9284,-45.56901 -118.3926,-68.35352 0,45.56836 0,91.13672 0,136.70508 z"
       style="display:inline;fill:#ffffff;fill-opacity:0.34437088;fill-rule:evenodd;stroke:none;stroke-width:5;stroke-linecap:round;stroke-linejoin:round;stroke-miterlimit:4;stroke-dasharray:none;stroke-opacity:1" />
  </g>
</svg>
