<?xml version="1.0" encoding="UTF-8" standalone="no"?>
<!-- Created with Inkscape (http://www.inkscape.org/) -->

<svg
   xmlns:dc="http://purl.org/dc/elements/1.1/"
   xmlns:cc="http://creativecommons.org/ns#"
   xmlns:rdf="http://www.w3.org/1999/02/22-rdf-syntax-ns#"
   xmlns:svg="http://www.w3.org/2000/svg"
   xmlns="http://www.w3.org/2000/svg"
   xmlns:sodipodi="http://sodipodi.sourceforge.net/DTD/sodipodi-0.dtd"
   xmlns:inkscape="http://www.inkscape.org/namespaces/inkscape"
   width="92.563354mm"
   height="94.660751mm"
   viewBox="0 0 327.98039 335.41211"
   id="svg4623"
   version="1.1"
   inkscape:version="0.91 r13725"
   sodipodi:docname="logo-new2.svg">
  <defs
     id="defs4625" />
  <sodipodi:namedview
     id="base"
     pagecolor="#ffffff"
     bordercolor="#666666"
     borderopacity="1.0"
     inkscape:pageopacity="0.0"
     inkscape:pageshadow="2"
     inkscape:zoom="0.35"
     inkscape:cx="162.26611"
     inkscape:cy="718.26926"
     inkscape:document-units="px"
     inkscape:current-layer="layer1"
     showgrid="false"
     fit-margin-top="0"
     fit-margin-left="0"
     fit-margin-right="0"
     fit-margin-bottom="0"
     inkscape:window-width="1280"
     inkscape:window-height="660"
     inkscape:window-x="-8"
     inkscape:window-y="-8"
     inkscape:window-maximized="1" />
  <metadata
     id="metadata4628">
    <rdf:RDF>
      <cc:Work
         rdf:about="">
        <dc:format>image/svg+xml</dc:format>
        <dc:type
           rdf:resource="http://purl.org/dc/dcmitype/StillImage" />
        <dc:title></dc:title>
      </cc:Work>
    </rdf:RDF>
  </metadata>
  <g
     inkscape:label="Layer 1"
     inkscape:groupmode="layer"
     id="layer1"
     transform="translate(288.69468,-983.79079)">
    <path
       style="display:inline;fill:#ffffff;fill-opacity:0.75496689;fill-rule:evenodd;stroke:none;stroke-width:5;stroke-linecap:round;stroke-linejoin:round;stroke-miterlimit:4;stroke-dasharray:none;stroke-opacity:1"
       d="m -284.6947,1054.4509 c 39.7845,22.9688 79.569,45.9375 119.3535,68.9063 3.5662,-20.3085 5.2129,-41.2986 10.2355,-61.2425 20.5722,-13.3695 42.5352,-24.8517 63.678503,-37.4059 -23.625003,-13.6394 -47.250003,-27.27869 -70.875003,-40.91801 -40.7975,23.55341 -81.595,47.10681 -122.3925,70.66011 z"
       id="path4368-9"
       inkscape:connector-curvature="0" />
    <path
       style="display:inline;fill:#ffffff;fill-opacity:0.59602649;fill-rule:evenodd;stroke:none;stroke-width:5;stroke-linecap:round;stroke-linejoin:round;stroke-miterlimit:4;stroke-dasharray:none;stroke-opacity:1"
       d="m -288.6947,1202.7068 c 22.4095,12.9368 44.819,25.8737 67.2285,38.8105 0.4323,-21.977 -1.0715,-44.2217 0.809,-66.0333 16.4471,-15.7039 34.4162,-29.9897 51.4957,-45.0917 -39.8444,-23.0039 -79.6888,-46.0078 -119.5332,-69.0117 0,47.1088 0,94.2175 0,141.3262 z"
       id="path4370-8"
       inkscape:connector-curvature="0" />
    <path
       style="display:inline;fill:#ffffff;fill-opacity:0.57615895;fill-rule:evenodd;stroke:none;stroke-width:5;stroke-linecap:round;stroke-linejoin:round;stroke-miterlimit:4;stroke-dasharray:none;stroke-opacity:1"
       d="m -213.4975,1179.2068 c 0,46.6654 0,93.3307 0,139.9961 15.7318,-13.5794 31.4636,-27.1589 47.1953,-40.7383 0,-46.666 0,-93.332 0,-139.998 -15.7317,13.58 -31.4635,27.1601 -47.1953,40.7402 z"
       id="path4372-9"
       inkscape:connector-curvature="0" />
    <path
       style="display:inline;fill:#ffffff;fill-opacity:0.52317882;fill-rule:evenodd;stroke:none;stroke-width:5;stroke-linecap:round;stroke-linejoin:round;stroke-miterlimit:4;stroke-dasharray:none;stroke-opacity:1"
       d="m -154.3022,1280.2966 c 19.5892,11.3093 39.1784,22.6185 58.767603,33.9278 40.7975,-23.5534 81.5951,-47.1068 122.3926,-70.6602 -19.5892003,-11.3092 -39.1784,-22.6185 -58.7676,-33.9277 -40.7975,23.5534 -81.595003,47.1068 -122.392603,70.6601 z"
       id="path4374-4"
       inkscape:connector-curvature="0" />
    <path
       style="display:inline;fill:#ffffff;fill-opacity:0.5629139;fill-rule:evenodd;stroke:none;stroke-width:5;stroke-linecap:round;stroke-linejoin:round;stroke-miterlimit:4;stroke-dasharray:none;stroke-opacity:1"
       d="m -27.909597,1057.3103 c 0,47.3718 0,94.7435 0,142.1153 22.3984997,-7.6368 44.7969,-15.2735 67.1953,-22.9102 0,-47.3718 0,-94.7435 0,-142.1152 -22.3984,7.6367 -44.7968003,15.2734 -67.1953,22.9101 z"
       id="path4376-5"
       inkscape:connector-curvature="0" />
    <path
       style="display:inline;fill:#ffffff;fill-opacity:0.62913908;fill-rule:evenodd;stroke:none;stroke-width:5;stroke-linecap:round;stroke-linejoin:round;stroke-miterlimit:4;stroke-dasharray:none;stroke-opacity:1"
       d="m -148.64,1066.9548 c -2.8158,18.3829 -5.6316,36.7657 -8.4473,55.1485 40.5052,-23.3854 81.010403,-46.7708 121.515603,-70.1563 2.8158,-18.3828 5.6315,-36.7656 8.4473,-55.1484 -40.5052,23.3854 -81.010403,46.7708 -121.515603,70.1562 z"
       id="path4378-8"
       inkscape:connector-curvature="0" />
    <path
       style="display:inline;fill:#ffffff;fill-opacity:0.21192053;fill-rule:evenodd;stroke:none;stroke-width:5;stroke-linecap:round;stroke-linejoin:round;stroke-miterlimit:4;stroke-dasharray:none;stroke-opacity:1"
       d="m -154.3022,1129.7322 c 39.4642,22.7845 78.928403,45.569 118.392603,68.3535 0,-45.5684 0,-91.1367 0,-136.7051 -39.4642,22.7839 -78.928403,45.5677 -118.392603,68.3516 z"
       id="path4380-1"
       inkscape:connector-curvature="0" />
    <path
       style="display:inline;fill:#ffffff;fill-opacity:0.35761593;fill-rule:evenodd;stroke:none;stroke-width:5;stroke-linecap:round;stroke-linejoin:round;stroke-miterlimit:4;stroke-dasharray:none;stroke-opacity:1"
       d="m -158.3022,1273.367 c 39.4642,-22.7839 78.928403,-45.5678 118.392603,-68.3516 -39.4642,-22.7845 -78.928403,-45.569 -118.392603,-68.3535 0,45.5683 0,91.1367 0,136.7051 z"
       id="path4382-4"
       inkscape:connector-curvature="0" />
  </g>
</svg>
