<svg xmlns="http://www.w3.org/2000/svg" width="454" height="454" viewBox="0 0 454 454" class="a">
<style>
  .a{
    version:1;
  }
  .b{
    color-interpolation-filters:sRGB;
  }
  .c{
    fill-opacity:0.8;
    fill:#fff;
    stroke-dasharray:none;
    stroke-miterlimit:4;
    stroke-opacity:1;
    stroke-width:1;
    stroke:none;
  }
  .d{
    fill-opacity:1;
    fill:#ff8f1d;
    filter:url(#filter8782);
    stroke-dasharray:none;
    stroke-miterlimit:4;
    stroke-opacity:1;
    stroke-width:1;
    stroke:none;
  }
</style>
  <defs class="undefined">
    <filter class="b">
      <feGaussianBlur in="SourceAlpha" stdDeviation="4.53125" result="blur" class="undefined"/>
      <feSpecularLighting in="blur" specularExponent="25" specularConstant="1.10000002" surfaceScale="10" lighting-color="#ffffff" result="specular" class="undefined">
        <feDistantLight elevation="55" azimuth="291" class="undefined"/>
      </feSpecularLighting>
      <feComposite k4="0" k1="0" in="specular" in2="SourceGraphic" k3="1" k2="0.843137" operator="arithmetic" result="composite1" class="undefined"/>
      <feComposite in="composite1" in2="SourceAlpha" operator="in" result="composite2" class="undefined"/>
    </filter>
    <filter class="b">
      <feGaussianBlur in="SourceAlpha" stdDeviation="7.7" result="blur" class="undefined"/>
      <feSpecularLighting in="blur" specularExponent="25" specularConstant="1" surfaceScale="10" lighting-color="rgb(255,255,255)" result="specular" class="undefined">
        <feDistantLight elevation="45" azimuth="292" class="undefined"/>
      </feSpecularLighting>
      <feComposite in="specular" in2="SourceGraphic" k3="1" k2="0.843137" operator="arithmetic" result="composite1" class="undefined"/>
      <feComposite in="composite1" in2="SourceAlpha" operator="in" result="composite2" class="undefined"/>
    </filter>
  </defs>
  <metadata class="undefined"/>
  <g class="undefined">
    <g class="undefined">
      <path d="m250.2 699.8c-0.4 0.7-2.8 1.4-5.3 1.4-5.3 0-7.6 2.1-7.6 7.3 0 2.7 1.2 4.7 4.1 7 5 3.8 5.1 5.3 0.3 5.3-4.7 0-9.7 3.5-9.7 6.8 0 1.7 1.9 3.5 4.7 4.9 3.5 1.8 4.7 3.2 4.7 5.7 0 2.7 0.9 3.6 4.5 4.6 2.3 0.7 4.3 2.1 4.3 3.2 0.1 3.2 2 5.4 4.7 5.4 4.1 0 8.5 11.6 7.7 19.7-0.4 14.2-10.7 26.3-15.9 15.2-63.2-8.9 34.2 78.8 21.2 16.1-4.1-5.9-8.2-3.4-6.6-5 2.4-2.5 13.6-10.3 24-8.8 6.5 1.8 12.9 5.6 12.9 7.7 0 3.1 3.5 6 6.1 4.9 1.4-0.4 2 0.1 2 1.7 0 3.9 3.8 8.5 6.5 7.7 1.8-0.4 2.8 0.7 4.1 4.3 1.4 3.8 2.6 5 4.9 5 3.2 0 5.4-3.2 6.9-10.3l0.8-4 4.5 5.2c2.6 2.8 5.3 5 6.1 5 2.8 0 8.3-6.8 8.3-10.3 0-2 0.7-3.9 1.5-4.3 0.9-0.7 0.7-2-0.7-4-1.8-2.9-1.8-3.5 0-5.3 1.9-2 1.5-2.7-3.4-7-3.1-2.7-5.6-5.6-5.6-6.6 0-1.8-12.9-8.5-16.4-8.5-1.2 0-2.6-1-3.1-2.1-0.5-1.8-2.8-2.1-12-1.5-6.2 0.3-13.7 1.7-16.5 2.8-2.8 1.3-5.4 2-5.8 1.5-1.9-2 13.1-10.5 24.5-13.8 5.8-1.8 7.7-2.9 7.7-4.9 0-2.9 2.6-4.3 7.4-4.3 1.8 0 5-1.5 7-3.3 3.2-2.9 3.5-3.8 2.2-6.3-1.5-2.5-1.1-3.1 3.4-5.3l5-2.5 0.1-9.5c0.1-14.1-5-19.7-12.7-14.1-2.8 2.1-3.4 2.1-5.6 0-4.1-3.9-9.6 0.4-9.6 7.5 0 2.4-0.5 2.7-3.2 2-3.8-1-7.6 3.5-7.6 9.2 0 2.5-1.2 4-4.3 5.6-3.4 1.7-5.1 4.3-9.2 14.1-7.3 17.7-15.7 28.7-9.7 13 3.2-8.8 3.9-28.2 0.9-29.4-1.1-0.4-2-2-2-3.3 0-3.8-6.6-16.9-8-16-0.5 0.4-3-1.7-5.4-4.7-4.3-5.6-7.6-7-8.7-3.9-0.5 1.4-0.9 1.4-2.4 0-2.2-2.1-4.9-2.2-6-0.3zM454 104.8 454 314.3q0 9.5-4.9 17.7-4.9 8.2-13.4 12.8L243.6 449.6q-7.6 4.4-16.6 4.4-9 0-16.6-4.4L18.3 344.9Q9.8 340.2 4.9 332 0 323.9 0 314.3L0 104.8Q0 93.9 6.3 84.9 12.6 75.8 22.9 72L215 2.2q6-2.2 12-2.2 6 0 12 2.2l192.1 69.8q10.4 3.8 16.6 12.8Q454 93.9 454 104.8Zm-34.9 36-67.9 24.7c5.6 4.9 10.9 10.2 14.6 16.7 3.5 9 3.2 19.5 0.7 28.7-3.1 13-15.2 25.8-29.4 23.6-5.8 3.2-12.9 5.7-19.8 4.2-9-1.1-12.9-10-19.3-15 1 3 1.9 6.1 2.5 9.2 3.7 13.6-0.8 29.1-12.1 37.9-6.8 3.9-12.5 9.5-19.5 12.9-6.5 0.9-9.1 7.6-13.7 11.5-3.6 2.5-7.1 5.3-10.7 8.1l0 106.1 174.6-95.2 0-173.5zM227 34.9 36.6 104.2 188.1 159.4c9.5-9.2 24.5-10.6 36.9-7 4.1 1.8 0.8-1.5 0-3.7-11-6.8-14.3-23.5-6.3-33.8 0.3-8.9 2.4-19 9.8-24.9 6.8-4.8 15.6-5.7 23.5-8 4.4 0.2 8.8-0.2 13.1 0.8 10.6 3.4 18.7 12 25.1 20.8 1.4 1 2.5 6 3.8 4 5.7-5 10.3-11.3 16.5-15.7 5.3-4.4 12.4-3.4 18.7-2.8 12.1-5 25.6 3.9 30.1 15.3 1.8 6.3 3.2 13.2 3 20L417.4 104.2 227 34.9ZM34.7 140.8l0 173.5 52.8 28.8c7.4-27.6 20.6-53.5 34.4-78.5 8.6-12.9 13.1-30.2 27.6-38.3-0.1-8.6 3.2-16.9 7.6-24.1 3.3-4.4 6.3-8.9 9.3-13.5L34.7 140.8Zm174.6 180c-7.3 6.3-15.1 12.3-23.6 17-18.8 8.7-36.2 21.1-55.6 28.5l79.2 43.2 0-88.7z" class="c"/>
      <path d="m202.2 169.5c-5.5 3.1-36.5 48-36.5 53 0 1.4 1.6 3.6 3.8 5 8.9 6.1 21.9 20.8 21.9 25 0 0.6-3.2-1-7-3.3-8.7-5-22.6-9.2-27.1-8.1-9.3 2.5-59 103.6-54.5 111.1 1.4 2.2 7.6 1.7 16.1-1.4 13-4.6 59.4-29.7 72.9-39.3 4.6-3.3 4.6-5.3-0.4-16.3-2.3-4.9-3.8-9.2-3.4-9.6 1.5-1.5 7.6 2.8 11.1 7.9 5.7 8.4 8.7 9.5 15.6 6.3 7.7-3.5 23.7-14.5 29.4-20.2 3.9-3.9 4.5-5.2 3.8-9.9-0.4-2.9-2.3-8.5-4.2-12.3-3-5.7-3.1-7-1.4-7 3.7 0 7.8 2.9 13.5 9.5l5.7 6.3 9.6-6.4c6.5-4.5 9.9-7.7 10.4-10.2 4.4-41.5-49.6-89.5-79.3-80z" class="d"/>
    </g>
  </g>
</svg>
