<?xml version="1.0" encoding="UTF-8" standalone="no"?>
<!-- Created with Inkscape (http://www.inkscape.org/) -->

<svg
   xmlns:dc="http://purl.org/dc/elements/1.1/"
   xmlns:cc="http://creativecommons.org/ns#"
   xmlns:rdf="http://www.w3.org/1999/02/22-rdf-syntax-ns#"
   xmlns:svg="http://www.w3.org/2000/svg"
   xmlns="http://www.w3.org/2000/svg"
   xmlns:xlink="http://www.w3.org/1999/xlink"
   xmlns:sodipodi="http://sodipodi.sourceforge.net/DTD/sodipodi-0.dtd"
   xmlns:inkscape="http://www.inkscape.org/namespaces/inkscape"
   width="90.057564mm"
   height="115.37818mm"
   viewBox="0 0 319.1016 408.82032"
   id="svg5885"
   version="1.1"
   inkscape:version="0.91 r13725"
   sodipodi:docname="logo-new-carrot.svg">
  <defs
     id="defs5887">
    <filter
       id="filter8782"
       style="color-interpolation-filters:sRGB">
      <feGaussianBlur
         id="feGaussianBlur8784"
         result="blur"
         stdDeviation="7.7"
         in="SourceAlpha" />
      <feSpecularLighting
         id="feSpecularLighting8786"
         result="specular"
         lighting-color="#ffffff"
         surfaceScale="10"
         specularConstant="1"
         specularExponent="25"
         in="blur">
        <feDistantLight
           id="feDistantLight8788"
           azimuth="292"
           elevation="45" />
      </feSpecularLighting>
      <feComposite
         k4="0"
         k1="0"
         id="feComposite8790"
         result="composite1"
         operator="arithmetic"
         k2="0.843137"
         k3="1"
         in2="SourceGraphic"
         in="specular" />
      <feComposite
         id="feComposite8792"
         result="composite2"
         operator="in"
         in2="SourceAlpha"
         in="composite1" />
    </filter>
    <radialGradient
       gradientTransform="translate(-3277.3954,-1394.1443)"
       inkscape:collect="always"
       xlink:href="#linearGradient6630"
       id="radialGradient6628"
       cx="3136"
       cy="881.36218"
       fx="3136"
       fy="881.36218"
       r="177"
       gradientUnits="userSpaceOnUse" />
    <linearGradient
       id="linearGradient6630"
       inkscape:collect="always">
      <stop
         id="stop6632"
         offset="0"
         style="stop-color:#ffc42c;stop-opacity:0.71597636" />
      <stop
         id="stop6634"
         offset="1"
         style="stop-color:#ff9220;stop-opacity:0;" />
    </linearGradient>
  </defs>
  <sodipodi:namedview
     id="base"
     pagecolor="#ffffff"
     bordercolor="#666666"
     borderopacity="1.0"
     inkscape:pageopacity="0.0"
     inkscape:pageshadow="2"
     inkscape:zoom="0.35"
     inkscape:cx="179.1016"
     inkscape:cy="-451.17966"
     inkscape:document-units="px"
     inkscape:current-layer="layer1"
     showgrid="false"
     fit-margin-top="0"
     fit-margin-left="0"
     fit-margin-right="0"
     fit-margin-bottom="0"
     inkscape:window-width="1280"
     inkscape:window-height="660"
     inkscape:window-x="-8"
     inkscape:window-y="-8"
     inkscape:window-maximized="1" />
  <metadata
     id="metadata5890">
    <rdf:RDF>
      <cc:Work
         rdf:about="">
        <dc:format>image/svg+xml</dc:format>
        <dc:type
           rdf:resource="http://purl.org/dc/dcmitype/StillImage" />
        <dc:title></dc:title>
      </cc:Work>
    </rdf:RDF>
  </metadata>
  <g
     inkscape:label="Layer 1"
     inkscape:groupmode="layer"
     id="layer1"
     transform="translate(305.53017,703.93139)">
    <path
       inkscape:connector-curvature="0"
       id="path6556"
       d="m -83.41097,-621.32981 c 3.3353,4.3347 6.7056,12.86096 0.084,15.96875 -3.7229,1.74009 -7.2076,-2.08728 -10.5704,-2.05859 -3.004,4.23923 -9.5522,2.32287 -12.8125,-0.13086 -2.5994,3.8691 -7.935,2.67626 -11.1738,0.68164 -8.8931,0.43371 -16.4806,6.64713 -18.9726,15.12499 -0.6293,2.60542 -3.9233,7.99288 1.373,6.64649 17.5473,2.62308 36.595,9.15828 47.2891,24.23828 1.9918,3.71822 -1.7742,9.42574 3.9289,10.46295 l 69.3738,40.05462 25.4922,-58.30859 c -30.4656,-17.42202 -60.769,-35.4203 -91.3359,-52.48241 -0.8844,-0.0636 -1.8267,-0.15381 -2.6758,-0.19727 z"
       style="display:inline;opacity:1;fill:#ffffff;fill-opacity:0.20118342;fill-rule:evenodd;stroke:none;stroke-width:5;stroke-linecap:butt;stroke-linejoin:round;stroke-miterlimit:4;stroke-dasharray:none;stroke-opacity:1"
       sodipodi:nodetypes="ccccccccccccc" />
    <path
       inkscape:connector-curvature="0"
       id="path6558"
       d="m -270.73917,-507.49193 c 29.3445,16.94206 58.6889,33.88412 88.0333,50.82618 -1.3777,-8.00641 -5.3652,-16.55417 -3.0352,-24.6504 7.2478,-7.93809 18.0719,-11.80262 28.2363,-14.56054 -10.3364,-2.06381 -20.6147,-1.15502 -30.9062,-0.2168 -7.2293,-0.5672 -6.611,-9.99185 -8.5723,-15.07422 -2.6268,-11.65263 -4.7064,-23.42825 -6.3144,-35.26367 -22.4805,12.97982 -44.961,25.95964 -67.4415,38.93945 z"
       style="display:inline;opacity:1;fill:#000000;fill-opacity:0.04142013;fill-rule:evenodd;stroke:none;stroke-width:5;stroke-linecap:butt;stroke-linejoin:round;stroke-miterlimit:4;stroke-dasharray:none;stroke-opacity:1" />
    <path
       inkscape:connector-curvature="0"
       id="path6560"
       d="m -88.46567,-547.39232 c -1.7353,4.50218 -0.3902,11.59549 -4.6387,14.21289 -7.2795,0.0832 -15.098,-2.15381 -22.0293,0.92969 7.4951,3.03195 17.608,5.27392 20.793,13.60742 1.0455,13.95819 -2.4844,28.02811 -6.668,41.26367 -1.5982,6.58288 -8.8038,9.22001 -14.8772,7.42147 -3.8924,-0.78436 -8.151,-1.33129 -11.9333,-0.32381 6.2046,3.75024 16.1706,3.91154 19.248,11.43945 0.035,3.3376 0.1096,4.5882 3.5638,1.60747 29.0171,-16.75262 58.0343,-33.50524 87.0515,-50.25786 -23.461,-13.54557 -46.9219,-27.09114 -70.3829,-40.63672 l -0.1269,0.73633 z"
       style="display:inline;opacity:1;fill:#000000;fill-opacity:0.04142013;fill-rule:evenodd;stroke:none;stroke-width:5;stroke-linecap:butt;stroke-linejoin:round;stroke-miterlimit:4;stroke-dasharray:none;stroke-opacity:1" />
    <path
       inkscape:connector-curvature="0"
       id="path6562"
       d="m -299.29767,-568.65013 c 8.498,19.4362 16.996,38.8724 25.4941,58.30859 23.3255,-13.46809 46.651,-26.93619 69.9766,-40.40429 -0.8611,-6.03911 -1.8299,-13.0139 3.3925,-17.46875 11.9041,-13.07345 30.9472,-16.53781 47.4707,-17.76367 -1.9318,-10.98082 -11.5289,-21.7503 -23.0097,-22.45312 -3.0046,3.27407 -7.6051,1.65775 -10.6387,-0.19531 -3.7543,1.41223 -8.5571,4.32566 -11.6777,-0.008 -4.5132,-1.53049 -11.2668,4.06409 -14.5586,-1.71875 -1.3361,-2.50371 -1.0313,-5.5498 -0.1172,-8.14063 -28.7774,16.61457 -57.5547,33.22916 -86.332,49.84374 z"
       style="display:inline;opacity:1;fill:#ffffff;fill-opacity:0.20118342;fill-rule:evenodd;stroke:none;stroke-width:5;stroke-linecap:butt;stroke-linejoin:round;stroke-miterlimit:4;stroke-dasharray:none;stroke-opacity:1"
       sodipodi:nodetypes="cccccccccccc" />
    <path
       inkscape:connector-curvature="0"
       id="path6564"
       d="m -272.73917,-368.08377 c 42.1303,24.3243 84.2605,48.6485 126.3907,72.9727 0,-45.1543 0,-90.3086 0,-135.46289 -14.0354,-3.13384 -28.4607,-5.17385 -42.2567,-8.98046 -28.0446,-16.19141 -56.0893,-32.38282 -84.134,-48.57423 0,40.01498 10e-5,80.02995 0,120.04488 z"
       style="display:inline;opacity:1;fill:#ffffff;fill-opacity:0.56804732;fill-rule:evenodd;stroke:none;stroke-width:5;stroke-linecap:butt;stroke-linejoin:round;stroke-miterlimit:4;stroke-dasharray:none;stroke-opacity:1" />
    <path
       inkscape:connector-curvature="0"
       id="path6566"
       d="m -106.67077,-434.33958 c -11.821,1.64674 -23.797,2.56234 -35.6777,3.92773 0,45.10028 0,90.20048 0,135.30078 42.1308,-24.3242 84.2617,-48.6484 126.3926,-72.9727 0,-39.54292 0,-79.08589 0,-118.62886 -30.2383,17.45768 -60.4766,34.91537 -90.7149,52.37305 z"
       style="display:inline;opacity:1;fill:#ffffff;fill-opacity:0.33136094;fill-rule:evenodd;stroke:none;stroke-width:5;stroke-linecap:butt;stroke-linejoin:round;stroke-miterlimit:4;stroke-dasharray:none;stroke-opacity:1" />
    <path
       inkscape:connector-curvature="0"
       id="path6568"
       d="m -186.02237,-442.68333 c 10.0241,2.02799 20.0482,4.05599 30.0723,6.08398 -40.2,-22.96429 -80.0958,-46.73292 -120.486,-69.19437 -9.698,-1.9619 -19.396,-3.92381 -29.0941,-5.88571 39.836,22.9987 79.6719,45.9974 119.5078,68.9961 z"
       style="display:inline;opacity:1;fill:#ffffff;fill-opacity:0.40236691;fill-rule:evenodd;stroke:none;stroke-width:5;stroke-linecap:butt;stroke-linejoin:round;stroke-miterlimit:4;stroke-dasharray:none;stroke-opacity:1" />
    <path
       inkscape:connector-curvature="0"
       id="path6570"
       d="m -13.32117,-505.54857 c -40.6256,23.45443 -81.2513,46.90886 -121.8769,70.36328 9.4498,-1.55887 19.6058,-0.94482 28.6246,-3.83005 40.0483,-23.1211 80.0966,-46.2422 120.1449,-69.36331 -8.9642,0.94336 -17.9284,1.88672 -26.8926,2.83008 z"
       style="display:inline;opacity:1;fill:#ffffff;fill-opacity:0.40236691;fill-rule:evenodd;stroke:none;stroke-width:5;stroke-linecap:butt;stroke-linejoin:round;stroke-miterlimit:4;stroke-dasharray:none;stroke-opacity:1" />
    <path
       inkscape:connector-curvature="0"
       id="path6572"
       d="m -149.61997,-699.42551 c -5.7598,0.84455 -2.0442,11.41405 -9.166,10.58984 -5.5769,-0.11648 -3.0178,7.43765 0,9.38086 3.2498,3.53362 -2.1373,5.17655 -3.2031,7.81836 -0.984,5.67293 7.1055,8.68476 4.3438,14.61914 -2.5966,9.03956 4.4648,17.0993 6.4042,25.66602 0.9441,4.84595 4.5524,10.4811 2.2344,15.27344 -4.9394,2.11246 -5.9208,-5.84795 -8.0215,-8.7461 -4.4201,-7.0798 -9.6774,-14.60223 -16.9843,-18.6914 -4.8638,0.87974 -7.8907,-4.43334 -12.5703,-5.03516 -3.4404,-1.45647 -6.8603,-2.35769 -10.3555,-1.04102 -3.7339,0.63349 -9.2126,-1.77217 -12.0703,0.28711 1.9675,3.77054 -2.7587,4.78041 -5.4317,4.92969 -1.1154,1.98524 -0.6734,5.23437 -3.1875,6.875 -4.3695,2.40071 -3.3026,8.49048 1.3379,9.67383 3.7393,1.0683 11.6466,-2.62468 11.7168,3.57617 -1.9228,3.68672 -7.2088,7.71062 -4.416,12.38672 4.7653,0.65206 10.6862,-3.78841 14.4805,1.26367 3.4511,0.83368 7.4409,-4.20658 11.0508,-1.18164 3.3006,3.66197 6.3933,-2.50644 10.2812,-0.58594 12.3365,2.8226 22.6041,13.92902 24.2383,26.5039 2.9229,-0.31811 7.4101,1.75535 6.9433,-2.83398 2.2002,-10.21332 9.3116,-19.87002 20.1602,-21.59374 3.3417,-1.45828 6.4538,-0.13284 9.3086,1.33203 3.1573,0.13018 5.043,-5.82231 8.3887,-1.86524 2.3925,2.32179 6.6847,2.7554 8.5507,-0.33398 4.0017,-2.61637 9.0492,5.05952 11.9903,0.70898 1.2801,-5.52972 -6.2593,-9.33366 -4.7793,-14.35937 4.1409,-2.12224 10.2412,1.23299 14.4082,-0.95313 1.6596,-5.26077 -1.6301,-9.54333 -4.0293,-13.67187 -0.1956,-3.48652 -7.3125,-1.5507 -7.0332,-6.24805 0.4969,-4.25609 -5.7833,-1.09778 -8.3145,-1.86719 -4.4126,0.0458 -8.4524,-2.24057 -12.7362,0.21923 -4.7542,0.56904 -8.1843,4.42943 -12.6856,5.22218 -4.6633,-1.39883 -6.928,4.97264 -10.1172,7.33984 -5.0805,5.12006 -8.0988,11.70865 -11.7578,17.72461 -4.2367,2.69433 -5.3613,-3.85263 -4.0782,-6.66015 1.6557,-10.15362 7.1049,-19.04752 10.7989,-28.41993 -3.4187,-3.61695 -1.1648,-9.04475 2.3672,-11.84375 1.388,-2.58686 2.9671,-6.90063 1.123,-9.33203 -4.8008,-0.24701 -5.4286,-5.49489 -3.3672,-8.91406 3.7108,-5.54235 -3.9472,-8.7595 -7.0195,-12.64062 -2.5175,-2.07872 -5.3878,-4.46688 -8.8047,-4.57227 z m -43.4004,47.91406 c 0.031,-0.0321 0.057,-0.17581 0,0 z"
       style="display:inline;opacity:1;fill:#ffffff;fill-opacity:0;stroke:none;stroke-width:5;stroke-linecap:round;stroke-linejoin:round;stroke-miterlimit:4;stroke-dasharray:none;stroke-opacity:1" />
    <path
       style="display:inline;opacity:1;fill:#ff9624;fill-opacity:1;stroke:none;stroke-width:5;stroke-linecap:round;stroke-linejoin:round;stroke-miterlimit:4;stroke-dasharray:none;stroke-opacity:1"
       d="m -150.59067,-581.86107 c -16.8984,0.58836 -36.1661,3.83072 -47.7207,17.36133 -4.6632,5.49221 -0.8054,13.28454 -0.7312,19.7265 2.4751,14.8635 4.2628,30.06351 9.4324,44.25788 5.7687,1.16354 11.8024,-1.36874 17.7324,-0.62696 7.1572,0.5711 15.5554,-0.33446 21.5566,4.17188 1.042,4.8567 -6.3522,4.41893 -9.3965,5.77539 -7.9064,2.76179 -17.0161,5.77347 -22.7089,12.28711 -0.1759,8.64571 2.6237,16.69473 4.5722,25.04297 11.1686,6.44791 22.3373,12.89583 33.5059,19.34375 10.4492,-6.03256 20.8984,-12.06511 31.3476,-18.09766 2.0163,-4.15685 -0.2357,-8.32306 -4.7461,-9.19336 -4.9712,-2.79756 -12.1888,-3.1462 -15.5722,-8.01953 0.7715,-5.80484 8.8768,-4.93928 13.2578,-4.8457 5.0944,0.80247 13.2273,3.33266 15.1211,-3.65039 4.1526,-12.59164 7.2154,-25.65526 6.789,-38.97266 -3.3198,-7.24668 -12.7006,-8.58223 -19.3632,-11.64453 -4.9151,-1.80747 -1.2598,-7.13303 2.3808,-7.70703 6.6706,-2.19791 13.7308,-0.7615 20.5293,-0.61524 0.7714,-7.47843 5.0523,-15.81168 2.0137,-23.08593 -14.0952,-16.3355 -37.2942,-21.61649 -58,-21.50782 z"
       id="path6578"
       inkscape:connector-curvature="0" />
    <path
       style="display:inline;opacity:1;fill:#ffffff;fill-opacity:0;stroke:none;stroke-width:5;stroke-linecap:round;stroke-linejoin:round;stroke-miterlimit:4;stroke-dasharray:none;stroke-opacity:1"
       d="m -149.61997,-699.42551 c -5.7598,0.84455 -2.0442,11.41405 -9.166,10.58984 -5.5769,-0.11648 -3.0178,7.43765 0,9.38086 3.2498,3.53362 -2.1373,5.17655 -3.2031,7.81836 -0.984,5.67293 7.1055,8.68476 4.3438,14.61914 -2.5966,9.03956 4.4648,17.0993 6.4042,25.66602 0.9441,4.84595 4.5524,10.4811 2.2344,15.27344 -4.9394,2.11246 -5.9208,-5.84795 -8.0215,-8.7461 -4.4201,-7.0798 -9.6774,-14.60223 -16.9843,-18.6914 -4.8638,0.87974 -7.8907,-4.43334 -12.5703,-5.03516 -3.4404,-1.45647 -6.8603,-2.35769 -10.3555,-1.04102 -3.7339,0.63349 -9.2126,-1.77217 -12.0703,0.28711 1.9675,3.77054 -2.7587,4.78041 -5.4317,4.92969 -1.1154,1.98524 -0.6734,5.23437 -3.1875,6.875 -4.3695,2.40071 -3.3026,8.49048 1.3379,9.67383 3.7393,1.0683 11.6466,-2.62468 11.7168,3.57617 -1.9228,3.68672 -7.2088,7.71062 -4.416,12.38672 4.7653,0.65206 10.6862,-3.78841 14.4805,1.26367 3.4511,0.83368 7.4409,-4.20658 11.0508,-1.18164 3.3006,3.66197 6.3933,-2.50644 10.2812,-0.58594 12.3365,2.8226 22.6041,13.92902 24.2383,26.5039 2.9229,-0.31811 7.4101,1.75535 6.9433,-2.83398 2.2002,-10.21332 9.3116,-19.87002 20.1602,-21.59374 3.3417,-1.45828 6.4538,-0.13284 9.3086,1.33203 3.1573,0.13018 5.043,-5.82231 8.3887,-1.86524 2.3925,2.32179 6.6847,2.7554 8.5507,-0.33398 4.0017,-2.61637 9.0492,5.05952 11.9903,0.70898 1.2801,-5.52972 -6.2593,-9.33366 -4.7793,-14.35937 4.1409,-2.12224 10.2412,1.23299 14.4082,-0.95313 1.6596,-5.26077 -1.6301,-9.54333 -4.0293,-13.67187 -0.1956,-3.48652 -7.3125,-1.5507 -7.0332,-6.24805 0.4969,-4.25609 -5.7833,-1.09778 -8.3145,-1.86719 -4.4126,0.0458 -8.4524,-2.24057 -12.7362,0.21923 -4.7542,0.56904 -8.1843,4.42943 -12.6856,5.22218 -4.6633,-1.39883 -6.928,4.97264 -10.1172,7.33984 -5.0805,5.12006 -8.0988,11.70865 -11.7578,17.72461 -4.2367,2.69433 -5.3613,-3.85263 -4.0782,-6.66015 1.6557,-10.15362 7.1049,-19.04752 10.7989,-28.41993 -3.4187,-3.61695 -1.1648,-9.04475 2.3672,-11.84375 1.388,-2.58686 2.9671,-6.90063 1.123,-9.33203 -4.8008,-0.24701 -5.4286,-5.49489 -3.3672,-8.91406 3.7108,-5.54235 -3.9472,-8.7595 -7.0195,-12.64062 -2.5175,-2.07872 -5.3878,-4.46688 -8.8047,-4.57227 z m -43.4004,47.91406 c 0.031,-0.0321 0.057,-0.17581 0,0 z"
       id="path6598"
       inkscape:connector-curvature="0" />
    <path
       inkscape:connector-curvature="0"
       style="display:inline;opacity:1;fill:url(#radialGradient6628);fill-opacity:1;stroke:none;stroke-width:5;stroke-linecap:round;stroke-linejoin:round;stroke-miterlimit:4;stroke-dasharray:none;stroke-opacity:1"
       d="m -83.41097,-621.32981 c 3.3353,4.3347 6.7056,12.86096 0.084,15.96875 -3.7229,1.74009 -7.2076,-2.08728 -10.5704,-2.05859 -3.004,4.23923 -9.5522,2.32287 -12.8125,-0.13086 -2.5994,3.8691 -7.935,2.67626 -11.1738,0.68164 -8.8931,0.43371 -16.4806,6.64713 -18.9726,15.12499 -0.6293,2.60542 -3.9233,7.99288 1.373,6.64649 17.5473,2.62306 36.595,9.15828 47.2891,24.23828 1.9918,3.71822 -1.7734,9.42568 3.9297,10.46289 l 69.373,40.05468 25.4922,-58.30859 c -30.4656,-17.42202 -60.769,-35.4203 -91.3359,-52.48241 -0.8844,-0.0636 -1.8267,-0.15381 -2.6758,-0.19727 z m -129.5547,2.83594 c -28.7774,16.61457 -57.5547,33.22916 -86.332,49.84374 8.498,19.4362 16.996,38.8724 25.4941,58.30859 23.3255,-13.46809 46.651,-26.93619 69.9766,-40.40429 -0.8611,-6.03911 -1.8299,-13.0139 3.3925,-17.46875 11.9041,-13.07345 30.9472,-16.53781 47.4707,-17.76367 -1.9318,-10.98082 -11.5289,-21.7503 -23.0097,-22.45312 -3.0046,3.27407 -7.6051,1.65775 -10.6387,-0.19531 -3.7543,1.41223 -8.5571,4.32585 -11.6777,-0.008 -4.5132,-1.53049 -11.2668,4.06409 -14.5586,-1.71875 -1.3361,-2.50371 -1.0313,-5.5498 -0.1172,-8.14063 z m 62.375,36.6328 c -16.8984,0.58836 -36.1661,3.83072 -47.7207,17.36133 -4.6632,5.49221 -0.8047,13.2846 -0.7305,19.72656 2.4751,14.8635 4.2621,30.06345 9.4317,44.25782 5.7687,1.16354 11.8024,-1.36874 17.7324,-0.62696 7.1572,0.5711 15.5554,-0.33446 21.5566,4.17188 1.042,4.8567 -6.3522,4.41893 -9.3965,5.77539 -7.9064,2.76179 -17.0161,5.77347 -22.7089,12.28711 -0.176,8.64571 2.6237,16.69473 4.5722,25.04297 11.1686,6.44791 22.3373,12.89583 33.5059,19.34375 l 31.3476,-18.09766 c 2.0163,-4.15685 -0.2357,-8.32306 -4.7461,-9.19336 -4.9712,-2.79756 -12.1888,-3.1462 -15.5722,-8.01953 0.7715,-5.80484 8.8768,-4.93928 13.2578,-4.8457 5.0944,0.80247 13.2273,3.33266 15.1211,-3.65039 4.1526,-12.59164 7.2154,-25.65526 6.789,-38.97266 -3.3198,-7.24668 -12.7006,-8.58223 -19.3632,-11.64453 -4.9151,-1.80747 -1.2598,-7.13303 2.3808,-7.70703 6.6706,-2.19791 13.7308,-0.7615 20.5293,-0.61524 0.7714,-7.47843 5.0523,-15.81168 2.0137,-23.08593 -14.0952,-16.3355 -37.2942,-21.61649 -58,-21.50782 z m 62.2519,33.73242 -0.1269,0.73633 c -1.7353,4.50218 -0.3902,11.59549 -4.6387,14.21289 -7.2795,0.0832 -15.098,-2.15381 -22.0293,0.92969 7.4951,3.03195 17.608,5.27392 20.793,13.60742 1.0455,13.95819 -2.4844,28.02813 -6.668,41.26367 -1.5982,6.5829 -8.8035,9.22042 -14.8769,7.42188 -3.8924,-0.78436 -8.1513,-1.3317 -11.9336,-0.32422 6.2046,3.75024 16.1706,3.91154 19.248,11.43945 0.035,3.3376 0.1103,4.58816 3.5645,1.60743 29.0171,-16.75262 58.0336,-33.5052 87.0508,-50.25782 -23.461,-13.54557 -46.9219,-27.09114 -70.3829,-40.63672 z m -114.9589,1.69727 -67.4415,38.93945 c 29.3446,16.94206 58.6889,33.88412 88.0333,50.82618 -1.3777,-8.00641 -5.3652,-16.55416 -3.0352,-24.6504 7.2478,-7.93808 18.0719,-11.80262 28.2363,-14.56054 -10.3364,-2.06381 -20.6147,-1.15502 -30.9062,-0.2168 -7.2293,-0.5672 -6.611,-9.99185 -8.5723,-15.07422 -2.6268,-11.65263 -4.7064,-23.42825 -6.3144,-35.26367 z m -102.2325,34.75195 c 39.836,22.9987 79.6719,45.9974 119.5078,68.9961 l 30.0723,6.08398 c -40.2,-22.96429 -80.0961,-46.73386 -120.4863,-69.19531 -9.698,-1.9619 -19.3957,-3.92287 -29.0938,-5.88477 z m 319.1016,3.30078 -26.8926,2.83008 c -40.6256,23.45443 -81.2513,46.90886 -121.8769,70.36328 9.4498,-1.55887 19.6062,-0.94484 28.625,-3.83007 l 120.1445,-69.36329 z"
       id="path6620" />
    <path
       style="color:#000000;font-style:normal;font-variant:normal;font-weight:normal;font-stretch:normal;font-size:medium;line-height:normal;font-family:sans-serif;text-indent:0;text-align:start;text-decoration:none;text-decoration-line:none;text-decoration-style:solid;text-decoration-color:#000000;letter-spacing:normal;word-spacing:normal;text-transform:none;direction:ltr;block-progression:tb;writing-mode:lr-tb;baseline-shift:baseline;text-anchor:start;white-space:normal;clip-rule:nonzero;display:inline;overflow:visible;visibility:visible;opacity:1;isolation:auto;mix-blend-mode:normal;color-interpolation:sRGB;color-interpolation-filters:linearRGB;solid-color:#000000;solid-opacity:1;fill:#ffffff;fill-opacity:1;fill-rule:nonzero;stroke:none;stroke-width:5;stroke-linecap:round;stroke-linejoin:round;stroke-miterlimit:4;stroke-dasharray:none;stroke-dashoffset:0;stroke-opacity:1;color-rendering:auto;image-rendering:auto;shape-rendering:auto;text-rendering:auto;enable-background:accumulate"
       d="m -149.81337,-703.92356 c -2.0876,0.0836 -4.11,1.03742 -5.4922,2.63282 -1.3829,1.59638 -2.1899,3.69423 -2.6054,6.18359 l 0,0.0215 c -0.1791,1.13169 -0.3538,1.58931 -0.3633,1.69336 -0.211,0.0296 -0.53,0.0617 -1.1133,0.0684 l -0.01,0 c -1.9125,0.0258 -3.6927,0.68926 -4.9648,1.87305 -1.2722,1.18379 -1.9893,2.79879 -2.2031,4.46289 -0.411,3.19962 0.8876,6.67376 3.5957,9.58008 -0.06,0.0388 -0.046,0.0478 -0.1153,0.0879 -2.6476,1.54153 -3.6994,4.61695 -3.4531,7.48633 0.2462,2.86937 1.6198,5.8056 4.002,8.21679 0.5912,0.59832 0.7266,0.90621 0.791,1.45704 0.064,0.55082 -0.043,1.48823 -0.541,2.92578 l 0,0.004 c -0.7258,2.10388 -0.9151,4.42559 -0.3594,7.17383 0.5557,2.74824 1.745,6.03694 3.7344,10.94336 l 0,0.006 c 1.0108,2.47308 1.6453,4.5483 2.4277,6.80078 -1.9385,-2.71432 -4.1308,-5.41516 -6.3613,-7.82812 -2.1255,-2.29942 -4.2209,-4.29889 -6.1113,-5.73438 -0.9452,-0.71774 -1.8285,-1.29833 -2.7618,-1.71484 -0.9333,-0.41651 -2.0407,-0.85236 -3.498,-0.26953 -0.024,0.009 -0.047,0.0179 -0.07,0.0273 0.1891,-0.0823 -0.03,0.006 -0.3125,-0.0644 -0.2829,-0.0704 -0.589,-0.25781 -0.6778,-0.34766 -1.1724,-1.18666 -2.6189,-1.90582 -4.4023,-2.74219 -1.7835,-0.83636 -3.8371,-1.64079 -5.832,-2.3164 -1.9948,-0.67561 -3.9076,-1.21919 -5.4942,-1.51563 -0.7933,-0.14822 -1.4826,-0.24823 -2.2441,-0.2207 -0.3807,0.0138 -0.7851,0.0371 -1.3516,0.26758 -0.2453,0.0997 -0.5528,0.32255 -0.8418,0.58398 -0.1658,0.0314 -0.3481,0.0705 -0.7461,0.0957 -1.0669,0.0676 -2.7178,0.0186 -4.5195,-0.19921 -3.66,-0.48134 -6.4304,-0.51956 -8.7246,0.3457 -1.1501,0.43377 -2.3226,1.23712 -2.8906,2.5625 -0.3121,0.72828 -0.348,1.48472 -0.2559,2.21875 -1.588,0.18038 -3.0703,0.65371 -4.2031,1.66992 -1.2403,1.11273 -1.9765,2.96042 -1.7051,4.74023 -0.051,0.13276 -0.1369,0.33867 -0.2988,0.61719 -0.3722,0.64007 -1.003,1.47411 -1.6934,2.15625 -2.0982,2.07306 -3.5467,4.32262 -3.6348,6.91211 -0.088,2.58949 1.2596,4.94548 3.3204,7.03125 2.3863,2.41535 5.8198,3.27261 9.7929,2.81836 0.018,-0.002 0.035,-0.005 0.053,-0.008 0.6077,-0.0823 0.8749,-0.0615 1.3593,-0.10352 -1.801,1.99986 -3.0021,4.42814 -3.4531,6.89258 -0.4931,2.69388 -0.2915,5.59769 1.752,7.66602 1.2468,1.26195 2.8862,1.61387 4.4472,1.63086 1.5465,0.0168 3.159,-0.30558 4.8301,-0.86133 l 0.023,-0.006 0.024,-0.008 c 1.7081,-0.53127 2.8078,-0.6757 3.3848,-0.6211 0.5828,0.0552 0.7815,0.14165 1.373,0.74024 1.1335,1.14742 2.6589,2.13536 4.4141,2.17187 1.7374,0.0361 3.1975,-0.64209 4.8945,-1.58594 0.8264,-0.43557 1.7543,-0.73627 2.3633,-0.83007 0.2564,-0.0395 0.3801,-0.0181 0.4023,-0.0273 1.4385,1.23434 3.1179,2.03205 4.8965,2.17188 1.9164,0.15066 3.9194,-0.54015 5.3633,-1.9668 -0.1282,0.12673 0.2947,-0.17582 1.4512,-0.0449 1.1565,0.13088 2.7995,0.61131 4.5293,1.38281 3.4596,1.543 7.3068,4.26141 9.4804,6.95312 0.037,0.0463 0.077,0.0912 0.1172,0.13476 3.8915,4.16829 6.2016,9.50037 6.7617,13.26758 -22.416,0.89238 -43.3137,8.50338 -50.9414,23.04687 -0.076,0.14531 -0.1375,0.29773 -0.1836,0.45508 -0.4478,1.52059 -0.3727,2.976 -0.2734,5.11328 0.099,2.13729 0.3422,4.7734 0.6914,7.76172 0.6984,5.97665 1.8262,13.35289 3.1211,20.65625 1.2949,7.30337 2.7546,14.52246 4.123,20.19141 0.6843,2.83447 1.3428,5.27745 1.9668,7.19141 0.3121,0.95695 0.6137,1.78009 0.9297,2.49023 0.316,0.71014 0.5557,1.28586 1.2266,1.96484 1.1681,1.18231 2.4938,1.51623 3.9199,1.73243 1.4262,0.21618 2.9839,0.18884 4.5508,-0.14063 l -0.072,0.0137 c 4.9368,-0.88555 12.3443,-1.06153 18.709,-0.62304 2.1171,0.14584 3.7882,0.44079 5.5508,0.70507 -5.0171,1.33156 -10.6084,3.6474 -15.3789,6.1836 -2.4249,1.28914 -4.6275,2.62694 -6.4395,3.94531 -1.8119,1.31837 -3.238,2.52536 -4.1816,4.07617 -0.01,0.0123 -0.016,0.0247 -0.024,0.0371 -0.9013,1.54252 -0.8406,2.91584 -0.7792,4.69336 0.061,1.77752 0.3246,3.9045 0.748,6.38477 0.6096,3.57032 1.5667,7.88341 2.7715,12.68359 l 6.1133,3.5293 c -1.7626,-6.61445 -3.1974,-12.61613 -3.9551,-17.05469 -0.4005,-2.34558 -0.6311,-4.3062 -0.6797,-5.71485 -0.042,-1.21465 0.1962,-2.0408 0.1426,-2.03906 0.2969,-0.43822 1.3004,-1.47243 2.7851,-2.55273 1.549,-1.127 3.5817,-2.37054 5.8457,-3.57422 4.5282,-2.40736 10.0098,-4.66731 14.5469,-5.8457 2.2056,-0.49675 4.1617,-1.03995 5.6172,-1.54883 0.7374,-0.25781 1.3274,-0.48603 1.9004,-0.80274 0.2865,-0.15835 0.5681,-0.27835 1.0117,-0.7832 0.2218,-0.25243 0.5461,-0.64849 0.6524,-1.39844 0.1062,-0.74995 -0.2758,-1.73513 -0.7266,-2.1914 -1.6391,-1.65902 -3.5801,-2.02328 -6.1445,-2.56446 -2.5645,-0.54117 -5.6806,-0.92528 -9.0332,-1.15625 -6.7054,-0.46193 -14.2855,-0.32403 -19.9356,0.68946 -0.024,0.004 -0.048,0.009 -0.072,0.0137 -0.9348,0.19657 -1.9793,0.21026 -2.7734,0.0898 -0.5501,-0.0834 -0.9458,-0.28169 -1.084,-0.33594 0.076,0.12267 0.1018,0.16393 -0.027,0.0332 -0.06,-0.0608 -0.034,-0.0572 0.027,-0.0332 -0.061,-0.0987 -0.1524,-0.24262 -0.2441,-0.44921 -0.2062,-0.46332 -0.4663,-1.15574 -0.7442,-2.00782 -0.5556,-1.70416 -1.1937,-4.05713 -1.8593,-6.81445 -1.3313,-5.51465 -2.7795,-12.66559 -4.0606,-19.89062 -1.281,-7.22504 -2.3987,-14.53325 -3.0801,-20.36329 -0.3406,-2.91502 -0.5716,-5.46591 -0.6621,-7.41406 -0.085,-1.8373 0.058,-3.11808 0.072,-3.26953 6.5395,-12.01218 26.8654,-19.82431 48.9863,-20.20117 0.3645,-0.006 0.7304,-0.002 1.0957,-0.004 0.808,-0.005 1.6175,10e-4 2.4278,0.0156 0.5367,0.0101 1.0736,0.0186 1.6113,0.0371 0.8691,0.0293 1.7381,0.0734 2.6074,0.125 0.5581,0.0331 1.1176,0.0695 1.6758,0.11132 2.1549,0.16391 4.3025,0.40233 6.4375,0.70508 0.5182,0.072 1.0377,0.14044 1.5527,0.22071 16.4821,2.60871 31.8711,9.40845 40.961,20.69921 0.2268,0.40184 0.5676,1.60129 0.5234,3.67579 -0.046,2.14456 -0.4279,5.1166 -1.1484,8.875 0,0.005 0,0.007 0,0.0117 l -1.8692,9.0879 -6.1855,-0.3418 c -8.825,-0.68068 -14.5892,-0.0287 -18.1192,3.45898 -0.5219,0.51559 -1.2676,1.36723 -1.2109,2.7461 0.057,1.37886 0.9698,2.28599 1.6914,2.79297 1.4373,1.00996 3.2175,1.59697 6.2969,2.58789 3.6594,1.23375 8.9709,3.94844 10.8027,5.35156 l 0.01,0.006 c 1.7935,1.36256 2.4334,2.06419 2.7695,2.83984 0.3361,0.77566 0.4955,2.11214 0.4727,4.7832 l 0,0.0137 c -0.023,7.26639 -3.6946,26.66842 -6.4649,33.875 l -0.01,0.0234 c -1.2315,3.30731 -2.1886,4.56609 -3.6075,5.16602 -1.4188,0.59993 -4.1529,0.62153 -8.9297,-0.32031 l -0.01,0 c -3.382,-0.66055 -6.9338,-0.66094 -9.8535,-0.19141 -1.4599,0.23477 -2.7537,0.56882 -3.9043,1.14844 -0.5753,0.28981 -1.1312,0.63903 -1.6407,1.20508 -0.5094,0.56604 -0.9697,1.45876 -0.9609,2.44336 l 0,0.002 c 0.014,1.52929 0.6692,1.79338 0.9746,2.08008 0.3054,0.2867 0.5772,0.47472 0.8809,0.67187 0.6073,0.3943 1.3332,0.78302 2.2109,1.21289 1.7476,0.8559 4.0678,1.83824 6.6406,2.78125 5.5583,2.12258 8.5282,3.61728 9.5391,4.59571 0.5055,0.48921 0.6117,0.72539 0.7031,1.23828 0.091,0.51101 0.061,1.38102 -0.1465,2.65234 -0.1035,0.59013 -0.2571,1.32793 -0.4003,2.0332 l 5.5683,-3.21289 c 0.051,-0.78516 0.037,-1.5598 -0.1035,-2.34961 -0.2578,-1.44687 -1.0227,-2.86742 -2.1465,-3.95507 -2.2475,-2.17531 -5.5703,-3.51158 -11.2324,-5.67383 -0.011,-0.004 -0.022,-0.008 -0.033,-0.0117 -1.8455,-0.67556 -3.2887,-1.32752 -4.6797,-1.95508 2.2122,-0.29767 5.0839,-0.30258 7.6172,0.19141 5.0733,1.00032 8.7035,1.34817 11.8457,0.0195 3.1385,-1.32704 4.938,-4.24791 6.3418,-8.01367 3.257,-8.4797 6.7628,-26.88807 6.793,-35.62696 l 0,-0.01 c 0.024,-2.81797 -0.041,-4.85807 -0.8848,-6.80469 -0.8434,-1.9464 -2.3389,-3.31577 -4.3262,-4.82617 l 0,-0.002 c -2.8278,-2.16512 -7.9726,-4.6803 -12.2402,-6.11914 -0.011,-0.003 -0.022,-0.007 -0.033,-0.01 -1.5904,-0.51173 -1.8056,-0.67927 -2.6543,-1.02734 2.321,-0.85358 6.109,-1.28432 12.0488,-0.82618 0.018,10e-4 0.035,0.003 0.053,0.004 l 8.3907,0.46484 c 1.2371,0.0689 2.338,-0.77863 2.5879,-1.99218 l 2.3105,-11.23243 c 0,-0.011 0.01,-0.0221 0.01,-0.0332 0.7514,-3.91685 1.1825,-7.09765 1.2383,-9.7207 0.056,-2.62306 -0.1853,-4.75376 -1.3282,-6.54883 -0.047,-0.0749 -0.099,-0.14732 -0.1543,-0.2168 -9.9493,-12.4741 -25.993,-19.64217 -43.0566,-22.49023 -0.02,-0.0135 -0.024,-0.0171 -0.045,-0.0312 -0.2791,-0.18552 -0.5926,-0.31304 -0.9219,-0.375 -1.0036,-0.18808 -1.933,-0.27671 -2.793,-0.28125 -0.276,-10e-4 -0.5165,0.0185 -0.7656,0.0332 -0.6336,-0.077 -1.2655,-0.15912 -1.9004,-0.22461 1.0288,-4.99239 3.7767,-12.81703 9.0859,-16.89258 2.6775,-1.46703 5.6869,-2.63593 8.0723,-3.22655 1.2178,-0.3015 2.2808,-0.45015 2.9453,-0.45703 0.6646,-0.007 0.768,0.31534 0.2422,-0.2168 1.7419,1.76305 4.1059,2.32159 6.2871,2.10938 1.7894,-0.17409 3.6565,-0.99907 4.8223,-2.60742 1.8282,1.50416 4.0295,2.39053 6.2324,2.59765 1.2543,0.11793 2.5024,0.0504 3.709,-0.33398 1.1176,-0.35603 2.2341,-1.10038 2.9668,-2.26172 0.2487,0.0171 1.2258,0.26306 2.7598,1.03711 0.015,0.008 0.031,0.0158 0.047,0.0234 1.9268,0.92205 3.5185,1.52501 5.2325,1.56054 1.7139,0.0355 3.4115,-0.7709 4.5468,-1.89257 1.7318,-1.711 2.3444,-4.34566 1.8614,-6.875 -0.4385,-2.29574 -1.6454,-4.74786 -3.3789,-7.54297 l 1.7441,0.13672 0.078,0.006 c 1.9856,0.0926 3.8801,0.059 5.4395,-0.082 0.7796,-0.0705 1.4695,-0.16495 2.1054,-0.31054 0.636,-0.1456 1.1752,-0.0851 2.1329,-1.03125 1.2142,-1.19968 1.4994,-2.56553 1.6933,-3.96485 0.1939,-1.39931 0.1757,-2.90491 0.014,-4.42383 -0.3246,-3.03782 -0.9292,-6.04206 -3.0547,-8.19335 -0.4782,-0.48394 -0.9045,-1.10712 -1.1231,-1.5625 -0.2184,-0.45539 0.019,-0.7996 -0.2441,0.006 0.041,-0.12563 0.071,-0.25428 0.092,-0.38476 0.221,-1.39616 -0.6465,-3.11204 -1.7031,-3.85742 -1.0349,-0.73006 -2.1272,-1.04424 -3.4453,-1.33789 l -0.01,-0.002 c -1.0129,-0.25953 -1.5555,-0.48774 -1.7871,-0.57812 0,-0.10364 -0.019,-0.27196 -0.023,-0.76172 -0.01,-0.79393 -0.019,-1.61692 -0.4551,-2.58984 -0.4364,-0.97293 -1.4798,-1.843 -2.4434,-2.17579 -1.927,-0.66557 -3.7283,-0.44652 -6.9883,-0.27148 -0.017,10e-4 -0.034,0.002 -0.051,0.004 -1.8909,0.14055 -3.7365,0.12059 -5.0938,-0.004 -0.6786,-0.0622 -1.2385,-0.15565 -1.5644,-0.23633 -0.1178,-0.0291 -0.188,-0.0736 -0.2266,-0.10351 -1.0095,-0.83316 -1.7582,-0.65403 -2.4238,-0.65625 -0.7427,-0.002 -1.4957,0.0898 -2.334,0.23242 -1.6766,0.28528 -3.6606,0.79586 -5.6914,1.42383 -2.0308,0.62797 -4.0891,1.37168 -5.8614,2.14453 -1.7721,0.77284 -3.1783,1.4035 -4.3632,2.57422 0.091,-0.0897 -0.9071,0.17151 -1.0664,0.11523 l 0.3691,0.16406 c -0.8224,-0.45058 -2.0351,-0.67584 -3.0801,-0.4414 -1.045,0.23443 -1.8863,0.74998 -2.7558,1.41601 -1.732,1.32654 -3.7176,3.43197 -6.7754,6.8418 0,0.003 2e-4,0.007 -0.01,0.01 -2.6269,2.83981 -4.9657,5.94283 -6.9336,8.85351 1.5208,-4.72873 3.5752,-9.99938 5.877,-14.16211 0.01,-0.011 0.013,-0.0221 0.019,-0.0332 1.4544,-2.73031 2.3898,-4.67099 2.8242,-6.4961 0.4344,-1.8251 0.041,-4.00078 -1.209,-5.26562 -0.5072,-0.51334 -0.5009,-0.50389 -0.3086,-1.19141 0.1923,-0.68752 0.977,-1.98378 2.5274,-3.51562 1.1381,-1.12445 1.7542,-2.47446 2.3125,-4.01172 0.5584,-1.53726 0.9566,-3.22512 1.0605,-4.88477 l 0,-0.0117 c 0.1301,-2.25064 0.2512,-3.83338 -0.5605,-5.51563 -0.8117,-1.68225 -2.5238,-2.49257 -4.0547,-2.96094 -0.032,-0.01 -0.065,-0.0189 -0.098,-0.0273 -0.2418,-0.0633 -0.2087,-0.0653 -0.3574,-0.11719 0.073,-0.0834 0.1152,-0.79347 0.7852,-2.76172 l 0,-0.002 1.7832,-5.26562 c 0.2999,-0.88417 0.082,-1.86179 -0.5645,-2.53516 l -6.5195,-6.78906 -0.01,-0.008 c -5.3944,-5.56586 -10.2296,-8.74184 -14.9629,-8.55664 z m 0.1953,4.9961 0.01,0 c 1.9841,-0.0784 6.2362,1.94245 11.1777,7.04101 l 5.459,5.68555 -1.2949,3.82617 c -0.8152,2.39422 -1.5024,3.79408 -1.0762,5.8457 0.2131,1.02611 1.0054,2.06236 1.8008,2.56641 0.7953,0.50405 1.5283,0.70381 2.3164,0.91016 l -0.098,-0.0274 c 1.1758,0.35973 1.0127,0.3535 1.0117,0.35157 -9e-4,-0.002 0.1925,0.97268 0.072,3.05273 l 0,0.002 c -0.066,1.03498 -0.3646,2.36364 -0.7695,3.47852 -0.4063,1.11859 -1.0228,2.05723 -1.127,2.16016 -1.8896,1.86695 -3.2477,3.65861 -3.8262,5.72656 -0.5784,2.06794 0.029,4.50043 1.5645,6.05468 0.1122,0.11352 0.1191,-0.31765 -0.098,0.5918 -0.2164,0.90946 -0.983,2.69338 -2.373,5.30274 -2.9719,5.3827 -5.5855,12.15655 -7.1777,17.74804 -0.7977,2.80134 -1.3413,5.27301 -1.5137,7.2793 -0.086,1.00315 -0.1156,1.87098 0.1289,2.8457 0.1223,0.48736 0.3148,1.04293 0.8164,1.60547 0.5017,0.56255 1.4262,1.01625 2.2344,1.03321 1.8113,0.038 2.1085,-0.80495 2.5,-1.25586 0.3915,-0.45092 0.6983,-0.92228 1.0195,-1.46875 0.6281,-1.06884 1.2638,-2.41278 1.8574,-3.90625 0.9139,-2.06111 5.2514,-8.47098 9.2598,-12.80274 0.01,-0.01 0.018,-0.0195 0.027,-0.0293 3.0291,-3.37875 5.011,-5.38609 6.1211,-6.23632 0.4662,-0.35709 0.6284,-0.40224 0.6797,-0.42578 0.027,0.0109 0.054,0.0213 0.082,0.0312 2.1617,0.76371 4.4355,0.51749 6.2461,-1.27148 0.057,-0.0566 1.3021,-0.87763 2.8457,-1.55078 1.5436,-0.67315 3.4653,-1.36954 5.3399,-1.94922 1.8746,-0.57968 3.7204,-1.04444 5.0547,-1.27148 0.6513,-0.11082 1.1734,-0.15675 1.4414,-0.15821 0.5326,0.32942 1.0144,0.49115 1.5,0.61133 0.6976,0.17266 1.4595,0.28118 2.3125,0.35938 1.7061,0.15638 3.7647,0.16973 5.9199,0.01 l -0.051,0.004 c 2.8987,-0.15564 4.2541,-0.0361 4.6153,0.006 l 0,0.082 c 0.012,1.38204 0.1332,3.00325 1.3476,4.23242 1.2144,1.22917 2.52,1.47263 4.2305,1.91016 0.027,0.007 0.053,0.0135 0.08,0.0195 0.845,0.18641 1.1595,0.34945 1.373,0.44726 0.01,0.922 0.2336,1.71158 0.5762,2.42579 0.4938,1.02948 1.1905,2.02159 2.0742,2.91601 0.3064,0.31011 1.3889,2.83538 1.6426,5.20899 0.1268,1.18679 0.1214,2.35914 0,3.20703 -0.09,0.65086 -0.1923,0.77271 -0.1973,0.83789 -0.3044,0.0599 -0.6944,0.12519 -1.2324,0.17382 -1.2579,0.11375 -2.9772,0.14905 -4.752,0.0664 l -6.6757,-0.52148 c -2.0723,-0.16248 -3.4264,2.12781 -2.2852,3.86523 l 2.2363,3.4043 c 1.8641,2.88895 2.86,5.14688 3.1348,6.58594 0.2748,1.43905 0.095,1.82404 -0.4668,2.3789 -0.4892,0.48334 -0.4726,0.46256 -0.9277,0.45313 -0.4552,-0.009 -1.5205,-0.28208 -3.1758,-1.07422 -1.8017,-0.90702 -3.2325,-1.50909 -4.8516,-1.56445 -1.6339,-0.0559 -3.4311,0.99148 -4.2324,2.27539 -0.029,0.0472 -0.056,0.0955 -0.082,0.14453 0.051,-0.0954 0.07,-0.0195 -0.2852,0.0937 -0.3555,0.11326 -0.9989,0.18718 -1.7226,0.11914 -1.4475,-0.13609 -3.154,-0.87088 -3.9473,-1.67383 -0.7931,-0.80274 -1.901,-1.6264 -3.4551,-1.48633 -1.554,0.14007 -2.5918,1.29939 -3.1269,2.29883 -0.044,0.0805 -0.083,0.16328 -0.1172,0.24805 -0.066,0.16332 -0.4845,0.53968 -1.3614,0.625 -0.877,0.0853 -1.8459,-0.24541 -2.2441,-0.64844 -1.2554,-1.27055 -2.5884,-1.28065 -3.8516,-1.26758 -1.2631,0.0131 -2.6203,0.23823 -4.0957,0.60352 -2.9507,0.73058 -6.342,2.05008 -9.4746,3.79101 -0.1,0.0552 -0.1957,0.11722 -0.2871,0.18555 -7.3603,5.52738 -10.2112,14.71687 -11.2363,20.6035 -1.8772,-0.1047 -3.7509,-0.15581 -5.6192,-0.16406 -0.4659,-5.31272 -3.2067,-11.37415 -7.9472,-16.49023 -2.8948,-3.56825 -7.1728,-6.50633 -11.2969,-8.3457 -2.0693,-0.92291 -4.0903,-1.56859 -6.0039,-1.78515 -1.9135,-0.21656 -3.9677,-0.0878 -5.5293,1.45508 -0.4672,0.4616 -0.8661,0.58747 -1.457,0.54101 -0.591,-0.0465 -1.3941,-0.35985 -2.2188,-1.12695 l 0.076,0.0723 c -1.4553,-1.47292 -2.9915,-1.24972 -4.3086,-1.04687 -1.3171,0.20285 -2.649,0.67246 -3.9336,1.34961 -0.018,0.009 -0.035,0.018 -0.053,0.0273 -1.4459,0.80641 -2.2313,0.98407 -2.4043,0.98047 -0.173,-0.004 -0.2464,0.0358 -0.961,-0.6875 -1.1595,-1.17363 -2.7526,-2.04144 -4.4609,-2.20312 -1.7083,-0.16168 -3.3869,0.21349 -5.3984,0.84375 -0.016,0.004 -0.031,0.009 -0.047,0.0137 -1.2916,0.43265 -2.4551,0.62564 -3.2324,0.61719 -0.7773,-0.008 -1.0229,-0.22694 -0.9434,-0.14649 -0.2911,-0.29461 -0.7037,-1.55017 -0.3926,-3.25 0.3112,-1.69983 1.2484,-3.61278 2.4844,-4.83398 0.9533,-0.94187 1.6725,-1.73373 2.1895,-2.76953 0.2584,-0.51791 0.4903,-1.1408 0.457,-1.95118 -0.033,-0.81038 -0.4819,-1.74694 -1.0762,-2.28125 -1.1886,-1.06861 -2.286,-1.06774 -3.4473,-1.10351 -1.1613,-0.0358 -2.4875,0.0779 -4.1035,0.29687 l 0.053,-0.008 c -3.1532,0.36051 -4.3579,-0.0392 -5.668,-1.36523 -1.5385,-1.55713 -1.9075,-2.5633 -1.8809,-3.34571 0.027,-0.7824 0.5239,-1.91446 2.1524,-3.52343 1.0297,-1.01729 1.8754,-2.12696 2.5,-3.20118 0.3123,-0.5371 0.5703,-1.06043 0.7617,-1.63086 0.1914,-0.57042 0.4319,-1.16533 0.1563,-2.23632 0,-0.017 -0.01,-0.0339 -0.014,-0.0508 -0.054,-0.19187 -0.115,-0.0239 0.1152,-0.23047 0.2303,-0.20656 0.9011,-0.54148 1.9024,-0.55274 0.013,10e-5 0.026,10e-5 0.039,0 0.5626,-0.015 1.0513,-0.04 1.5899,-0.13867 0.5385,-0.0987 1.2342,-0.2433 1.9414,-0.94141 0.7072,-0.6981 0.9495,-1.88058 0.873,-2.56445 -0.065,-0.58309 -0.2311,-0.94486 -0.3906,-1.32031 0.8209,-0.25784 3.0129,-0.45565 6.1543,-0.041 l 0.023,0.004 c 2.0584,0.24884 3.9275,0.32027 5.4375,0.22461 0.755,-0.0478 1.4061,-0.12244 2.084,-0.32031 0.3389,-0.0989 0.69,-0.21465 1.1328,-0.51368 0.016,-0.0106 0.038,-0.0393 0.055,-0.0508 0.2097,0.0191 0.3257,0.0159 0.6797,0.082 1.1924,0.2228 2.9722,0.71595 4.8086,1.33789 1.8364,0.62195 3.7534,1.37626 5.3125,2.10743 1.5592,0.73116 2.826,1.58795 2.9668,1.73047 0.884,0.89472 1.9338,1.41151 3.0273,1.68359 0.9216,0.22928 1.9061,0.28977 2.9375,-0.0137 0.035,0.009 0.06,0.0112 0.1133,0.0351 0.365,0.16288 1.0209,0.55646 1.7774,1.13086 1.5128,1.14882 3.4756,2.99673 5.4628,5.14649 3.9737,4.29877 8.112,9.93096 9.8067,13.67187 l 0,0.002 c 0.8645,1.94506 1.602,3.45409 2.2441,4.60743 0.6443,1.15727 1.0635,1.91446 1.918,2.66601 0.4272,0.37578 1.1874,1.04123 2.5664,0.76172 0.6895,-0.13976 1.3003,-0.59993 1.6211,-1.01367 0.3207,-0.41374 0.4457,-0.77123 0.5293,-1.06836 0.3343,-1.18853 0.1774,-1.90436 0.037,-2.96094 -0.5606,-4.22529 -2.8343,-11.97637 -6.4883,-20.91797 l 0,-0.006 c -1.9513,-4.81314 -3.037,-7.93512 -3.4648,-10.05078 -0.4276,-2.11472 -0.3111,-3.11338 0.1836,-4.54882 l 0,-0.004 c 0.6287,-1.81531 0.9788,-3.46996 0.7832,-5.14063 -0.1957,-1.67198 -1.0393,-3.21672 -2.1992,-4.39062 -1.606,-1.62556 -2.4473,-3.60347 -2.5782,-5.12891 -0.1309,-1.52544 0.2775,-2.32551 0.9864,-2.73828 1.3032,-0.75879 2.6141,-1.23764 3.1445,-3.23633 0.2651,-0.99934 -0.035,-2.07063 -0.4102,-2.72851 -0.3753,-0.65788 -0.8008,-1.11149 -1.2812,-1.59766 -2.0236,-2.04817 -2.6711,-4.3817 -2.4903,-5.78906 0.09,-0.70368 0.3362,-1.14709 0.6504,-1.43945 0.3142,-0.29237 0.7423,-0.52129 1.625,-0.53321 0.7966,-0.009 1.4982,-0.0272 2.2598,-0.18164 0.7635,-0.15484 1.6619,-0.52356 2.3379,-1.1914 1.3519,-1.33569 1.4704,-2.80277 1.7559,-4.60743 l 0,0.0215 c 0.3137,-1.87928 0.8903,-3.08698 1.4511,-3.73438 0.5609,-0.6474 1.041,-0.87557 1.916,-0.91015 z m -47.1386,45.15429 c -0.152,0.19294 -0.2758,0.40745 -0.375,0.64844 0.1249,-0.27576 0.2247,-0.49605 0.375,-0.64844 z m 4.3574,1.87305 -0.049,0.25781 c -0.032,0.13371 -0.1314,0.20794 -0.1875,0.32617 0.08,-0.19772 0.2043,-0.34461 0.2363,-0.58398 z m -20.7402,4.37695 c 0.031,0.0709 0.01,-0.0106 0.021,0.0332 0.01,0.0112 -2e-4,0.026 0.01,0.0371 z m 39.8437,4.28321 -0.07,0.0273 c -0.1531,0.0612 -0.2612,0.0903 -0.3555,0.11133 0.1421,-0.047 0.2819,-0.076 0.4258,-0.13867 z m -0.6601,0.16406 c 0,3.4e-4 0.014,0.005 0.017,0.006 -0.045,-0.002 -0.059,-0.0101 -0.017,-0.006 z m -45.4883,0.1875 c 0.01,0.002 0.011,0.0209 0,0.0488 0,0.008 -0.022,0.0427 -0.025,0.0527 0.01,-0.0649 0.015,-0.10432 0.023,-0.10156 z m -0.023,0.23437 c 0.027,0.1561 0.049,0.31252 0.092,0.4668 l -0.014,-0.0508 c -0.048,-0.18588 -0.069,-0.31654 -0.078,-0.41602 z m 140.9805,0.91211 c -0.07,0.21559 -6e-4,0.34589 -0.037,0.54102 -0.013,-0.0588 -0.061,-0.11863 -0.055,-0.15625 z m -65.0137,21.13086 c -0.043,0.0598 -0.1366,0.20814 -0.1543,0.22852 -0.029,0.0335 -0.032,-0.0947 0.1543,-0.22852 z m 37.7012,12.39649 -0.1172,0.24804 c 0.01,-0.0135 -0.052,0.0266 -0.047,0.0176 0.046,-0.0975 0.123,-0.16346 0.1641,-0.26562 z m 12.4199,0.89648 -0.082,0.14453 c 0.057,-0.0908 -4e-4,0.007 -0.068,0.0274 0.041,-0.0683 0.1121,-0.10037 0.1504,-0.17188 z"
       id="path6580"
       inkscape:connector-curvature="0"
       sodipodi:nodetypes="ccccccccccccccccscccsssccccccscccccssccccsccccccsscccccscccsccsccccccssccsccccscccccccccccccccscscscscccccccccccccccccccccccccccccccccscccccccsscccscsccccccccccccsccccccccccccccccccccccccccccscssccccscccccccscccccscccccccccccccsccccsccccccscsscccscccccccccccccccccccccccccccccscccssccccccccssscccccccsccccsccccccccscccccccssscccccscccccssscccscccsscccccsccsccccccssccccccscccccccccsccccccsccscscccccsccccsccccccccccccccccccccccccccccccccccccccccccccccccccccccccccccc" />
  </g>
</svg>
