<?xml version="1.0" encoding="UTF-8" standalone="no"?>
<svg
   xmlns:dc="http://purl.org/dc/elements/1.1/"
   xmlns:cc="http://creativecommons.org/ns#"
   xmlns:rdf="http://www.w3.org/1999/02/22-rdf-syntax-ns#"
   xmlns:svg="http://www.w3.org/2000/svg"
   xmlns="http://www.w3.org/2000/svg"
   version="1.1"
   id="svg4623"
   viewBox="0 0 327.98039 335.41211"
   height="94.660751mm"
   width="92.563354mm">
  <defs
     id="defs4625" />
  <metadata
     id="metadata4628">
    <rdf:RDF>
      <cc:Work
         rdf:about="">
        <dc:format>image/svg+xml</dc:format>
        <dc:type
           rdf:resource="http://purl.org/dc/dcmitype/StillImage" />
        <dc:title></dc:title>
      </cc:Work>
    </rdf:RDF>
  </metadata>
  <g
     transform="translate(-153.02941,-645.78256)"
     id="layer1">
    <path
       style="display:inline;fill:#ffffff;fill-opacity:0.79607843;fill-rule:evenodd;stroke:none;stroke-width:5;stroke-linecap:round;stroke-linejoin:round;stroke-miterlimit:4;stroke-dasharray:none;stroke-opacity:1"
       d="m 157.02939,716.44277 c 39.7845,22.9687 79.569,45.9375 119.3535,68.9062 3.5662,-20.3085 5.2129,-41.2986 10.2355,-61.2425 20.5722,-13.3694 42.5352,-24.8517 63.6785,-37.4059 -23.625,-13.6394 -47.25,-27.27869 -70.875,-40.91801 -40.7975,23.55341 -81.595,47.10681 -122.3925,70.66021 z"
       id="path5315" />
    <path
       style="display:inline;fill:#ffffff;fill-opacity:0.63529412;fill-rule:evenodd;stroke:none;stroke-width:5;stroke-linecap:round;stroke-linejoin:round;stroke-miterlimit:4;stroke-dasharray:none;stroke-opacity:1"
       d="m 153.02939,864.69857 c 22.4095,12.9369 44.819,25.8737 67.2285,38.8106 0.4323,-21.9771 -1.0715,-44.2218 0.809,-66.0334 16.4471,-15.7039 34.4162,-29.9897 51.4957,-45.0916 -39.8444,-23.0039 -79.6888,-46.0079 -119.5332,-69.0118 0,47.1088 0,94.2175 0,141.3262 z"
       id="path5317" />
    <path
       style="display:inline;fill:#ffffff;fill-opacity:0.61568627;fill-rule:evenodd;stroke:none;stroke-width:5;stroke-linecap:round;stroke-linejoin:round;stroke-miterlimit:4;stroke-dasharray:none;stroke-opacity:1"
       d="m 228.22659,841.19857 c 0,46.6654 0,93.3307 0,139.9961 15.7318,-13.5794 31.4636,-27.1589 47.1953,-40.7383 0,-46.666 0,-93.332 0,-139.998 -15.7317,13.5801 -31.4635,27.1601 -47.1953,40.7402 z"
       id="path5319" />
    <path
       style="display:inline;fill:#ffffff;fill-opacity:0.56078389;fill-rule:evenodd;stroke:none;stroke-width:5;stroke-linecap:round;stroke-linejoin:round;stroke-miterlimit:4;stroke-dasharray:none;stroke-opacity:1"
       d="m 287.42189,942.28847 c 19.5892,11.3092 39.1784,22.6184 58.7676,33.9277 40.7975,-23.5534 81.5951,-47.1068 122.3926,-70.6602 -19.5892,-11.3092 -39.1784,-22.6185 -58.7676,-33.9277 -40.7975,23.5534 -81.595,47.1068 -122.3926,70.6602 z"
       id="path5321" />
    <path
       style="display:inline;fill:#ffffff;fill-opacity:0.60392157;fill-rule:evenodd;stroke:none;stroke-width:5;stroke-linecap:round;stroke-linejoin:round;stroke-miterlimit:4;stroke-dasharray:none;stroke-opacity:1"
       d="m 413.81449,719.30207 c 0,47.3718 0,94.7435 0,142.1153 22.3985,-7.6368 44.7969,-15.2735 67.1953,-22.9102 0,-47.3717 0,-94.7435 0,-142.1152 -22.3984,7.6367 -44.7968,15.2734 -67.1953,22.9101 z"
       id="path5323" />
    <path
       style="display:inline;fill:#ffffff;fill-opacity:0.66666667;fill-rule:evenodd;stroke:none;stroke-width:5;stroke-linecap:round;stroke-linejoin:round;stroke-miterlimit:4;stroke-dasharray:none;stroke-opacity:1"
       d="m 293.08409,728.94667 c -2.8158,18.3828 -5.6316,36.7656 -8.4473,55.1484 40.5052,-23.3854 81.0104,-46.7708 121.5156,-70.1563 2.8158,-18.3828 5.6315,-36.7656 8.4473,-55.1484 -40.5052,23.3854 -81.0104,46.7708 -121.5156,70.1563 z"
       id="path5325" />
    <path
       style="display:inline;fill:#ffffff;fill-opacity:0.25098039;fill-rule:evenodd;stroke:none;stroke-width:5;stroke-linecap:round;stroke-linejoin:round;stroke-miterlimit:4;stroke-dasharray:none;stroke-opacity:1"
       d="m 287.42189,791.72397 c 39.4642,22.7845 78.9284,45.569 118.3926,68.3535 0,-45.5683 0,-91.1367 0,-136.7051 -39.4642,22.7839 -78.9284,45.5677 -118.3926,68.3516 z"
       id="path5327" />
    <path
       style="display:inline;fill:#ffffff;fill-opacity:0.39607843;fill-rule:evenodd;stroke:none;stroke-width:5;stroke-linecap:round;stroke-linejoin:round;stroke-miterlimit:4;stroke-dasharray:none;stroke-opacity:1"
       d="m 283.42189,935.35877 c 39.4642,-22.7839 78.9284,-45.5677 118.3926,-68.3516 -39.4642,-22.7845 -78.9284,-45.569 -118.3926,-68.3535 0,45.5683 0,91.1367 0,136.7051 z"
       id="path5329" />
  </g>
</svg>
