<?xml version="1.0" encoding="UTF-8" standalone="no"?>
<svg
   xmlns:dc="http://purl.org/dc/elements/1.1/"
   xmlns:cc="http://creativecommons.org/ns#"
   xmlns:rdf="http://www.w3.org/1999/02/22-rdf-syntax-ns#"
   xmlns:svg="http://www.w3.org/2000/svg"
   xmlns="http://www.w3.org/2000/svg"
   version="1.1"
   id="svg2"
   viewBox="0 0 548.44697 311.09528"
   height="311.09528"
   width="548.44696">
  <defs
     id="defs4" />
  <metadata
     id="metadata7">
    <rdf:RDF>
      <cc:Work
         rdf:about="">
        <dc:format>image/svg+xml</dc:format>
        <dc:type
           rdf:resource="http://purl.org/dc/dcmitype/StillImage" />
        <dc:title></dc:title>
      </cc:Work>
    </rdf:RDF>
  </metadata>
  <path
     d="m 389.07779,150.61217 c 0,-2.20784 -0.82005,-4.11844 -2.46012,-5.73187 L 316.18091,75.588504 c -1.64006,-1.613425 -3.58227,-2.420137 -5.82655,-2.420137 -2.24431,0 -4.18651,0.806712 -5.82657,2.420137 -1.64006,1.613395 -2.46011,3.524021 -2.46011,5.731856 l 0,36.6839 -58.00676,0 c -2.24431,0 -4.18651,0.80671 -5.82657,2.42012 -1.64008,1.61341 -2.46013,3.52403 -2.46013,5.73186 l 0,48.91186 c 0,2.20785 0.82005,4.11847 2.46013,5.73188 1.64005,1.61341 3.58226,2.42013 5.82657,2.42013 l 58.00676,0 0,36.68391 c 0,2.20782 0.82005,4.11843 2.46012,5.73185 1.64006,1.6134 3.58225,2.42012 5.82657,2.42012 2.24428,0 4.18648,-0.80672 5.82655,-2.42012 l 70.43675,-69.29184 c 1.64006,-1.61342 2.46011,-3.52403 2.46011,-5.73185 z M 5.979287,46.365492 c -1.619345,0 -3.019987,0.592562 -4.203337,1.775948 C 0.5926,49.324797 0,50.725434 0,52.344771 0,73.271657 9.156617,90.96107 27.467627,105.41062 c 24.04101,18.93386 49.015683,38.67742 74.925173,59.2306 0.74738,0.62283 2.92772,2.4601 6.54012,5.51193 3.61239,3.05187 6.47748,5.38669 8.59505,7.00604 2.1176,1.6193 4.88907,3.58133 8.31463,5.88582 3.42553,2.30443 6.56986,4.01696 9.43485,5.13804 2.86496,1.12109 5.54435,1.68249 8.03566,1.68249 l 0.18694,0 0.18551,0 c 2.4913,0 5.17065,-0.56139 8.03565,-1.68249 2.86496,-1.12108 6.00929,-2.83361 9.43486,-5.13804 3.42552,-2.30449 6.19703,-4.26652 8.31464,-5.88582 2.11759,-1.61935 4.98268,-3.95417 8.59504,-7.00604 3.61242,-3.05183 5.79276,-4.8891 6.54011,-5.51193 13.55836,-10.7554 26.82962,-21.26263 39.8763,-31.57461 -0.82781,-9.16965 2.13406,-19.45097 10.69025,-23.92434 7.4268,-1.64067 14.96766,-2.19003 22.54816,-2.30371 0.59303,-0.46714 1.21858,-0.9618 1.81047,-1.42795 6.72654,-5.35627 12.98685,-12.550841 18.77911,-21.581812 5.79225,-9.030963 8.68852,-17.220705 8.68852,-24.570021 l 0,-2.054935 0,-2.522279 -0.0935,-2.430261 c -0.0623,-1.619308 -0.24939,-2.397608 -0.56083,-2.335334 -0.3114,0.06229 -0.65451,-0.497665 -1.02819,-1.681051 -0.37368,-1.18335 -0.93364,-1.651196 -1.68105,-1.402065 -0.7474,0.24913 -1.61924,0.0932 -2.61575,-0.46736 l -275.040093,0 z m -5.617937,65.101758 0,143.25272 c 0,1.61656 0.5903,3.01623 1.77165,4.19758 1.181342,1.18133 2.581012,1.77164 4.197577,1.77164 l 274.568423,0 c 1.61655,0 3.01478,-0.59031 4.19614,-1.77164 1.18132,-1.18135 1.77165,-2.58102 1.77165,-4.19758 l 0,-59.71956 -29.49237,0 c -10.31024,1.1637 -23.01269,0.69277 -29.74689,-8.45124 -3.19334,-7.50869 -3.91955,-15.44582 -3.91285,-23.47281 -10.96125,8.74695 -20.74068,16.69785 -29.17887,23.74747 -6.34195,5.34713 -11.5025,9.51339 -15.48173,12.49783 -3.97928,2.98446 -9.3574,5.99999 -16.13459,9.04659 -6.77714,3.0466 -13.14957,4.57003 -19.11848,4.57003 l -0.18695,0 -0.18693,0 c -5.96887,0 -12.34135,-1.52343 -19.11849,-4.57003 -6.77718,-3.0466 -12.15536,-6.06213 -16.13458,-9.04659 -3.97928,-2.98444 -9.13978,-7.1507 -15.48174,-12.49783 C 73.04476,170.40944 46.557887,149.39458 13.231637,123.77814 8.630607,120.04758 4.340612,115.94393 0.36135,111.46725 Z"
     style="fill:#000000;fill-opacity:1;stroke:none;stroke-width:1;stroke-miterlimit:4;stroke-dasharray:none;stroke-opacity:1"
     id="path4643" />
  <g
     transform="translate(-116.6283,-125.11904)"
     id="layer1" />
</svg>
